<svg id="Capa_1" data-name="Capa 1" xmlns="http://www.w3.org/2000/svg" xmlns:xlink="http://www.w3.org/1999/xlink" viewBox="0 0 3135.6 2160"><defs><style>.cls-1{fill:url(#Cielo);}.cls-2{fill:url(#Cielo-2);}.cls-3{fill:url(#Cielo-3);}.cls-4{fill:url(#Cielo-4);}.cls-5{fill:url(#Cielo-5);}.cls-6,.cls-7,.cls-8{fill:none;stroke-miterlimit:10;stroke-width:4px;}.cls-6{stroke:url(#Cielo-6);}.cls-7{stroke:url(#Cielo-7);}.cls-8{stroke:url(#Cielo-8);}</style><linearGradient id="Cielo" x1="380.81" y1="583.95" x2="1174.02" y2="583.95" gradientUnits="userSpaceOnUse"><stop offset="0" stop-color="#cce0f4"/><stop offset="0.06" stop-color="#c3dcf2"/><stop offset="0.17" stop-color="#a9d2ee"/><stop offset="0.31" stop-color="#80c2e7"/><stop offset="0.46" stop-color="#47acde"/><stop offset="0.57" stop-color="#1e9cd7"/><stop offset="0.87" stop-color="#0075be"/><stop offset="0.99" stop-color="#005b97"/></linearGradient><linearGradient id="Cielo-2" x1="1384.37" y1="925.91" x2="2177.58" y2="925.91" xlink:href="#Cielo"/><linearGradient id="Cielo-3" x1="405.78" y1="1664.22" x2="1199" y2="1664.22" xlink:href="#Cielo"/><linearGradient id="Cielo-4" x1="2029.6" y1="1703.83" x2="2822.81" y2="1703.83" xlink:href="#Cielo"/><linearGradient id="Cielo-5" x1="2521.57" y1="666.98" x2="3314.78" y2="666.98" xlink:href="#Cielo"/><linearGradient id="Cielo-6" x1="1152.29" y1="916.14" x2="2425.67" y2="916.14" xlink:href="#Cielo"/><linearGradient id="Cielo-7" x1="1573.47" y1="1821.19" x2="3161.28" y2="1821.19" xlink:href="#Cielo"/><linearGradient id="Cielo-8" x1="179.22" y1="721.52" x2="978.34" y2="721.52" xlink:href="#Cielo"/></defs><title>fondo-1</title><path class="cls-1" d="M871.3,222v4h0c66,0,127,16.2,176.4,46.8a256.4,256.4,0,0,1,64.4,56.2,251.1,251.1,0,0,1,42.6,76.6c14.6,41.8,18.8,87,12.5,134.5s-21.7,92-46.4,136.9-57.3,86.5-96.9,123.5a542.6,542.6,0,0,1-138.7,93.9,512.6,512.6,0,0,1-102.3,35.8,444.1,444.1,0,0,1-99.4,11.7c-66,0-126.9-16.2-176.3-46.8a258.6,258.6,0,0,1-64.5-56.2,253.2,253.2,0,0,1-42.6-76.6c-14.6-41.8-18.8-87-12.5-134.5,6.1-46,21.7-92,46.4-136.9s57.4-86.6,96.9-123.5a544.4,544.4,0,0,1,138.7-93.9A511.3,511.3,0,0,1,772,237.7,443.2,443.2,0,0,1,871.3,226v-4m0,0c-64.9,0-134.6,15.5-203.4,47.9-210.4,99.2-332,320.3-271.6,493.7C437,880.4,549.9,945.9,683.5,945.9c64.9,0,134.6-15.5,203.4-47.9,210.5-99.2,332.1-320.3,271.6-493.7C1117.8,287.5,1004.9,222,871.3,222Z" transform="translate(-179.2 -129)"/><path class="cls-2" d="M1874.9,564v4h0c66,0,126.9,16.2,176.3,46.7a261,261,0,0,1,64.5,56.3,252.7,252.7,0,0,1,42.6,76.5c14.6,41.8,18.8,87.1,12.5,134.6-6.1,45.9-21.7,92-46.4,136.9s-57.4,86.5-96.9,123.4a542.1,542.1,0,0,1-138.7,94,517.6,517.6,0,0,1-102.4,35.8,443,443,0,0,1-99.3,11.6c-66,0-127-16.1-176.4-46.7a259,259,0,0,1-64.5-56.3,251.3,251.3,0,0,1-42.5-76.5c-14.6-41.8-18.8-87.1-12.5-134.5s21.7-92.1,46.4-137,57.3-86.5,96.9-123.4a537.5,537.5,0,0,1,138.7-93.9,504.2,504.2,0,0,1,102.3-35.8,437.5,437.5,0,0,1,99.3-11.7v-4m-.1,0c-64.8,0-134.6,15.4-203.3,47.8-210.5,99.3-332.1,320.3-271.6,493.8,40.7,116.8,153.5,182.2,287.2,182.2,64.8,0,134.6-15.4,203.4-47.8,210.4-99.3,332-320.3,271.6-493.8C2121.3,629.4,2008.5,564,1874.8,564Z" transform="translate(-179.2 -129)"/><path class="cls-3" d="M896.3,1302.3v4h0c66,0,127,16.2,176.3,46.7a257.4,257.4,0,0,1,64.5,56.3,250.6,250.6,0,0,1,42.6,76.5c14.6,41.9,18.8,87.1,12.5,134.6-6.1,45.9-21.7,92-46.4,136.9s-57.4,86.5-96.9,123.4a542.1,542.1,0,0,1-138.7,94,517.6,517.6,0,0,1-102.4,35.8,443,443,0,0,1-99.3,11.6c-66,0-127-16.1-176.3-46.7a253.5,253.5,0,0,1-64.5-56.3,249.4,249.4,0,0,1-42.6-76.5c-14.6-41.8-18.8-87.1-12.5-134.5s21.7-92.1,46.4-137,57.3-86.5,96.9-123.4a537.5,537.5,0,0,1,138.7-93.9A511.3,511.3,0,0,1,797,1318a437.5,437.5,0,0,1,99.3-11.7v-4m0,0c-64.9,0-134.6,15.4-203.4,47.8-210.5,99.3-332.1,320.4-271.6,493.8,40.7,116.8,153.6,182.2,287.2,182.2,64.9,0,134.6-15.4,203.4-47.8,210.4-99.2,332-320.3,271.6-493.8-40.7-116.8-153.6-182.2-287.2-182.2Z" transform="translate(-179.2 -129)"/><path class="cls-4" d="M2520.1,1341.9v4h0c66,0,127,16.2,176.3,46.7a257.4,257.4,0,0,1,64.5,56.3,249.9,249.9,0,0,1,42.6,76.6c14.6,41.8,18.8,87,12.5,134.5-6.1,45.9-21.7,92-46.4,136.9s-57.4,86.5-96.9,123.5a542.6,542.6,0,0,1-138.7,93.9,511.3,511.3,0,0,1-102.4,35.8,443,443,0,0,1-99.3,11.6c-66,0-127-16.1-176.3-46.7a253.5,253.5,0,0,1-64.5-56.3,249.4,249.4,0,0,1-42.6-76.5c-14.6-41.8-18.8-87.1-12.5-134.5s21.7-92.1,46.4-137,57.4-86.5,96.9-123.4a544.4,544.4,0,0,1,138.7-93.9,511.3,511.3,0,0,1,102.4-35.8,443.2,443.2,0,0,1,99.3-11.7v-4m0,0c-64.9,0-134.6,15.4-203.4,47.9-210.5,99.2-332.1,320.3-271.6,493.7,40.7,116.8,153.6,182.2,287.2,182.2,64.9,0,134.6-15.4,203.4-47.8,210.5-99.2,332.1-320.3,271.6-493.8-40.7-116.8-153.6-182.2-287.2-182.2Z" transform="translate(-179.2 -129)"/><path class="cls-5" d="M3012.1,305.1v4h0c66,0,127,16.1,176.3,46.7a259,259,0,0,1,64.5,56.3,251.5,251.5,0,0,1,42.6,76.5c14.6,41.8,18.8,87.1,12.5,134.5s-21.7,92.1-46.4,137-57.4,86.5-96.9,123.4A539.3,539.3,0,0,1,3026,977.4a511.3,511.3,0,0,1-102.4,35.8,437.5,437.5,0,0,1-99.3,11.7c-66,0-127-16.2-176.4-46.7a261,261,0,0,1-64.5-56.3,252.5,252.5,0,0,1-42.5-76.5c-14.6-41.9-18.8-87.1-12.5-134.6,6.1-45.9,21.7-92,46.4-136.9s57.3-86.5,96.9-123.4a540.4,540.4,0,0,1,138.7-94,516.7,516.7,0,0,1,102.3-35.8,443.9,443.9,0,0,1,99.4-11.6v-4m0,0c-64.9,0-134.7,15.4-203.4,47.8-210.5,99.2-332.1,320.3-271.6,493.8,40.7,116.8,153.5,182.2,287.2,182.2,64.8,0,134.6-15.4,203.4-47.8,210.4-99.3,332-320.4,271.6-493.8-40.7-116.8-153.6-182.2-287.2-182.2Z" transform="translate(-179.2 -129)"/><path class="cls-6" d="M1423.4,551.4c250.2-350.9,642.9-394.4,848.3-192.7,189.9,186.3,179.2,542.1,90.9,766.9-153.7,391.7-624.9,594.7-932.1,383.5-204.9-140.9-262.2-414.7-276.2-493.4" transform="translate(-179.2 -129)"/><path class="cls-7" d="M3159.3,1353.6c-9.6,81.2-67.7,516.6-390.3,766.9-338.6,262.8-829.8,214-1194.1-143" transform="translate(-179.2 -129)"/><path class="cls-8" d="M977.8,155.5c-351.8-95.8-678,100.3-768.1,398-72,237.7-9.1,592.1,208.5,715.1,144.4,81.7,296.1,26.9,345.7,6.2" transform="translate(-179.2 -129)"/></svg>